<?xml version="1.0" encoding="UTF-8"?><svg id="uuid-6f239817-7221-43f3-af13-3287c77dda0c" xmlns="http://www.w3.org/2000/svg" viewBox="0 0 1900 673.51"><g id="uuid-b4d6f949-98f3-4ffa-93c8-808d4b99a508"><path d="m1351.46,485.51c-9.45,0-17.1-7.66-17.1-17.1s7.66-17.1,17.1-17.1,17.1,7.66,17.1,17.1h0c-.01,9.44-7.66,17.09-17.1,17.1Zm0-33.54c-9.08,0-16.44,7.36-16.44,16.44s7.36,16.44,16.44,16.44,16.44-7.36,16.44-16.44h0c-.01-9.08-7.37-16.43-16.44-16.44Z" fill="#fff"/><path d="m1353.79,297.46c-6.41,0-11.62-5.2-11.62-11.62s5.2-11.62,11.62-11.62,11.62,5.2,11.62,11.62c0,6.41-5.2,11.61-11.62,11.62Zm0-22.57c-6.05,0-10.96,4.9-10.96,10.96s4.9,10.95,10.96,10.95,10.96-4.9,10.96-10.95h0c0-6.05-4.91-10.95-10.96-10.96h0Z" fill="#fff"/><path d="m1354.13,461.79c-1.29.83,0,2.92-.72,7.36-1.2,7.35-1.97,7.69-.63,8.46,1.64.95,7.73-2.99,7.77-8.06.04-4.52-3.36-9.74-6.43-7.77Z" fill="#fff"/><path d="m1428.15,267.21c-21.87-.03-39.58-17.79-39.55-39.66,0-5.36,1.1-10.66,3.22-15.58,8.63-20.1,31.93-29.39,52.02-20.76,20.1,8.63,29.39,31.93,20.76,52.02-6.26,14.56-20.59,23.99-36.44,23.97Zm.06-77.91c-21.15,0-38.3,17.13-38.31,38.28,0,21.15,17.13,38.3,38.28,38.31,15.31,0,29.16-9.11,35.2-23.18,8.33-19.46-.69-41.99-20.15-50.32-4.75-2.03-9.86-3.09-15.02-3.09Z" fill="#fff"/><path d="m1417.96,221.02c-2.89,6.68-6.64,11.42-9.78,10.07-3.1-1.33-4.41-8.24-1.51-14.92,2.86-6.7,8.76-10.51,11.86-9.17,3.14,1.34,2.28,7.33-.57,14.02Z" fill="#fff"/><path d="m1408.92,240.11c-1.76.89-1.87,5.53.18,8.53,1.97,2.9,5.8,4.91,7.62,3.27,1.84-1.66.18-4.95-1.09-7.08-1.62-2.72-4.96-5.6-6.72-4.72Z" fill="#fff"/><path d="m1403.22,331.14c-4.53,0-8.19-3.67-8.19-8.19s3.67-8.19,8.19-8.19c4.53,0,8.19,3.67,8.19,8.19h0c0,4.52-3.67,8.19-8.19,8.19Zm0-15.73c-4.16,0-7.53,3.37-7.53,7.53s3.37,7.53,7.53,7.53c4.16,0,7.53-3.37,7.53-7.53,0-4.16-3.38-7.53-7.53-7.53h0Z" fill="#fff"/></g><g id="uuid-01217e7e-3e28-4be3-958c-ff58b227276d"><path d="m532.22,468.42h0c0-9.45,7.66-17.11,17.1-17.11,9.45,0,17.1,7.66,17.1,17.1,0,9.45-7.66,17.1-17.1,17.1-9.44,0-17.09-7.66-17.1-17.1Zm.66,0h0c0,9.08,7.36,16.44,16.44,16.44,9.08,0,16.44-7.36,16.44-16.44s-7.36-16.44-16.44-16.44c-9.08,0-16.43,7.36-16.44,16.44Z" fill="#fff"/><path d="m535.38,285.84c0-6.41,5.2-11.62,11.62-11.62,6.41,0,11.62,5.2,11.62,11.62s-5.2,11.62-11.62,11.62c-6.41,0-11.61-5.2-11.62-11.62Zm11.62-10.96c-6.05,0-10.95,4.91-10.96,10.96h0c0,6.05,4.9,10.96,10.96,10.96,6.05,0,10.96-4.9,10.96-10.95,0-6.05-4.9-10.96-10.96-10.96h0Z" fill="#fff"/><path d="m540.22,469.56c.04,5.07,6.12,9,7.77,8.06,1.34-.77.57-1.11-.63-8.46-.72-4.44.58-6.54-.72-7.36-3.07-1.97-6.47,3.25-6.43,7.77Z" fill="#fff"/><path d="m436.19,243.24c-8.63-20.1.66-43.39,20.76-52.02,20.1-8.63,43.39.66,52.02,20.76,2.11,4.92,3.21,10.22,3.22,15.58.03,21.87-17.68,39.63-39.55,39.66-15.85.02-30.19-9.41-36.44-23.97Zm21.36-50.85c-19.46,8.33-28.48,30.86-20.15,50.32,6.05,14.07,19.89,23.18,35.2,23.18,21.15,0,38.29-17.16,38.28-38.31,0-21.15-17.16-38.29-38.31-38.28-5.16,0-10.27,1.06-15.02,3.09Z" fill="#fff"/><path d="m482.25,207c3.1-1.34,9.01,2.47,11.86,9.17,2.89,6.68,1.59,13.59-1.51,14.92-3.13,1.35-6.89-3.39-9.78-10.07-2.85-6.69-3.71-12.68-.57-14.02Z" fill="#fff"/><path d="m485.15,244.83c-1.27,2.13-2.92,5.42-1.09,7.08,1.82,1.65,5.65-.37,7.62-3.27,2.05-3,1.94-7.65.18-8.53-1.76-.88-5.09,2-6.72,4.72Z" fill="#fff"/><path d="m489.37,322.95h0c0-4.53,3.67-8.19,8.19-8.19,4.53,0,8.19,3.67,8.19,8.19,0,4.53-3.67,8.19-8.19,8.19-4.52,0-8.19-3.67-8.19-8.19Zm8.19-7.53c-4.16,0-7.53,3.38-7.53,7.53,0,4.16,3.37,7.53,7.53,7.53,4.16,0,7.53-3.37,7.53-7.53,0-4.16-3.37-7.53-7.53-7.53h0Z" fill="#fff"/></g></svg>